<svg xmlns="http://www.w3.org/2000/svg" width="18.025" height="18" viewBox="0 0 18.025 18">
  <g id="linkedin-big-logo" transform="translate(0 -0.183)">
    <path id="Path_1944" data-name="Path 1944" d="M2.4.183a2.4,2.4,0,1,0,2.4,2.4A2.406,2.406,0,0,0,2.4.183Z" transform="translate(0 0)" fill="#404040"/>
    <path id="Path_1945" data-name="Path 1945" d="M8.083,83.531H4.477a.311.311,0,0,0-.311.311V95.45a.311.311,0,0,0,.311.311H8.083a.311.311,0,0,0,.311-.311V83.842A.311.311,0,0,0,8.083,83.531Z" transform="translate(-3.878 -77.578)" fill="#404040"/>
    <path id="Path_1946" data-name="Path 1946" d="M96.2,81.557a4.736,4.736,0,0,0-3.187,1.057V82a.311.311,0,0,0-.311-.311h-3.46a.311.311,0,0,0-.311.311V93.613a.311.311,0,0,0,.311.311h3.6a.311.311,0,0,0,.311-.311V87.87c0-1.648.3-2.669,1.816-2.669,1.49,0,1.6,1.1,1.6,2.768v5.645a.311.311,0,0,0,.311.311h3.6a.311.311,0,0,0,.311-.311V87.245C100.8,84.6,100.28,81.557,96.2,81.557Z" transform="translate(-82.778 -75.74)" fill="#404040"/>
  </g>
</svg>
