<svg xmlns="http://www.w3.org/2000/svg" width="120" height="120.736" viewBox="0 0 120 120.736">
  <g id="blockchain_2_" data-name="blockchain (2)" transform="translate(-1.561 -0.001)">
    <g id="Group_272" data-name="Group 272" transform="translate(100.866 42.186)">
      <path id="Path_2085" data-name="Path 2085" d="M424.488,186.213a1.81,1.81,0,0,1-1.81-1.81v-3.7a1.81,1.81,0,0,1,3.621,0v3.7A1.81,1.81,0,0,1,424.488,186.213Z" transform="translate(-422.678 -178.892)" fill="#ffd496"/>
    </g>
    <g id="Group_273" data-name="Group 273" transform="translate(100.866 51.867)">
      <path id="Path_2086" data-name="Path 2086" d="M424.488,227.27a1.81,1.81,0,0,1-1.81-1.81v-3.7a1.81,1.81,0,1,1,3.621,0v3.7A1.81,1.81,0,0,1,424.488,227.27Z" transform="translate(-422.678 -219.949)" fill="#ffd496"/>
    </g>
    <g id="Group_274" data-name="Group 274" transform="translate(100.866 61.549)">
      <path id="Path_2087" data-name="Path 2087" d="M424.488,268.327a1.81,1.81,0,0,1-1.81-1.81v-3.7a1.81,1.81,0,0,1,3.621,0v3.7A1.81,1.81,0,0,1,424.488,268.327Z" transform="translate(-422.678 -261.006)" fill="#ffd496"/>
    </g>
    <g id="Group_275" data-name="Group 275" transform="translate(100.866 71.231)">
      <path id="Path_2088" data-name="Path 2088" d="M424.488,309.384a1.81,1.81,0,0,1-1.81-1.81v-3.7a1.81,1.81,0,0,1,3.621,0v3.7A1.81,1.81,0,0,1,424.488,309.384Z" transform="translate(-422.678 -302.063)" fill="#ffd496"/>
    </g>
    <g id="Group_276" data-name="Group 276" transform="translate(18.635 42.186)">
      <path id="Path_2089" data-name="Path 2089" d="M75.778,186.213a1.81,1.81,0,0,1-1.81-1.81v-3.7a1.81,1.81,0,0,1,3.621,0v3.7A1.81,1.81,0,0,1,75.778,186.213Z" transform="translate(-73.968 -178.892)" fill="#ffd496"/>
    </g>
    <g id="Group_277" data-name="Group 277" transform="translate(18.635 51.867)">
      <path id="Path_2090" data-name="Path 2090" d="M75.778,227.27a1.81,1.81,0,0,1-1.81-1.81v-3.7a1.81,1.81,0,1,1,3.621,0v3.7A1.81,1.81,0,0,1,75.778,227.27Z" transform="translate(-73.968 -219.949)" fill="#ffd496"/>
    </g>
    <g id="Group_278" data-name="Group 278" transform="translate(18.635 61.549)">
      <path id="Path_2091" data-name="Path 2091" d="M75.778,268.327a1.81,1.81,0,0,1-1.81-1.81v-3.7a1.81,1.81,0,0,1,3.621,0v3.7A1.81,1.81,0,0,1,75.778,268.327Z" transform="translate(-73.968 -261.006)" fill="#ffd496"/>
    </g>
    <g id="Group_279" data-name="Group 279" transform="translate(18.635 71.231)">
      <path id="Path_2092" data-name="Path 2092" d="M75.778,309.384a1.81,1.81,0,0,1-1.81-1.81v-3.7a1.81,1.81,0,0,1,3.621,0v3.7A1.81,1.81,0,0,1,75.778,309.384Z" transform="translate(-73.968 -302.063)" fill="#ffd496"/>
    </g>
    <g id="Group_280" data-name="Group 280" transform="translate(67.963 17.443)">
      <path id="Path_2093" data-name="Path 2093" d="M288.841,77.589h-3.88a1.81,1.81,0,0,1,0-3.621h3.88a1.81,1.81,0,0,1,0,3.621Z" transform="translate(-283.15 -73.968)" fill="#ffd496"/>
    </g>
    <g id="Group_281" data-name="Group 281" transform="translate(57.811 17.443)">
      <path id="Path_2094" data-name="Path 2094" d="M245.787,77.589h-3.88a1.81,1.81,0,0,1,0-3.621h3.88a1.81,1.81,0,0,1,0,3.621Z" transform="translate(-240.096 -73.968)" fill="#ffd496"/>
    </g>
    <g id="Group_282" data-name="Group 282" transform="translate(78.116 17.443)">
      <path id="Path_2095" data-name="Path 2095" d="M331.9,77.589h-3.88a1.81,1.81,0,0,1,0-3.621h3.88a1.81,1.81,0,0,1,0,3.621Z" transform="translate(-326.205 -73.968)" fill="#ffd496"/>
    </g>
    <g id="Group_283" data-name="Group 283" transform="translate(47.658 17.443)">
      <path id="Path_2096" data-name="Path 2096" d="M202.732,77.589h-3.88a1.81,1.81,0,1,1,0-3.621h3.88a1.81,1.81,0,0,1,0,3.621Z" transform="translate(-197.041 -73.968)" fill="#ffd496"/>
    </g>
    <g id="Group_284" data-name="Group 284" transform="translate(37.505 17.443)">
      <path id="Path_2097" data-name="Path 2097" d="M159.677,77.589H155.8a1.81,1.81,0,0,1,0-3.621h3.88a1.81,1.81,0,1,1,0,3.621Z" transform="translate(-153.986 -73.968)" fill="#ffd496"/>
    </g>
    <g id="Group_285" data-name="Group 285" transform="translate(67.963 99.673)">
      <path id="Path_2098" data-name="Path 2098" d="M288.841,426.3h-3.88a1.81,1.81,0,0,1,0-3.621h3.88a1.81,1.81,0,0,1,0,3.621Z" transform="translate(-283.15 -422.678)" fill="#ffd496"/>
    </g>
    <g id="Group_286" data-name="Group 286" transform="translate(57.811 99.673)">
      <path id="Path_2099" data-name="Path 2099" d="M245.787,426.3h-3.88a1.81,1.81,0,0,1,0-3.621h3.88a1.81,1.81,0,0,1,0,3.621Z" transform="translate(-240.096 -422.678)" fill="#ffd496"/>
    </g>
    <g id="Group_287" data-name="Group 287" transform="translate(78.116 99.673)">
      <path id="Path_2100" data-name="Path 2100" d="M331.9,426.3h-3.88a1.81,1.81,0,0,1,0-3.621h3.88a1.81,1.81,0,0,1,0,3.621Z" transform="translate(-326.205 -422.678)" fill="#ffd496"/>
    </g>
    <g id="Group_288" data-name="Group 288" transform="translate(47.658 99.673)">
      <path id="Path_2101" data-name="Path 2101" d="M202.732,426.3h-3.88a1.81,1.81,0,0,1,0-3.621h3.88a1.81,1.81,0,0,1,0,3.621Z" transform="translate(-197.041 -422.678)" fill="#ffd496"/>
    </g>
    <g id="Group_289" data-name="Group 289" transform="translate(37.505 99.673)">
      <path id="Path_2102" data-name="Path 2102" d="M159.677,426.3H155.8a1.81,1.81,0,0,1,0-3.621h3.88a1.81,1.81,0,0,1,0,3.621Z" transform="translate(-153.986 -422.678)" fill="#ffd496"/>
    </g>
    <circle id="Ellipse_29" data-name="Ellipse 29" cx="26.489" cy="26.489" r="26.489" transform="translate(35.072 33.879)" fill="#fee7c9"/>
    <path id="Path_2103" data-name="Path 2103" d="M265.248,170.159a26.512,26.512,0,0,1-31.808,25.955,25.958,25.958,0,0,0,.012-51.91,26.5,26.5,0,0,1,31.8,25.955Z" transform="translate(-177.199 -109.79)" fill="#ffd496"/>
    <g id="Group_290" data-name="Group 290" transform="translate(35.155 33.924)">
      <circle id="Ellipse_30" data-name="Ellipse 30" cx="20.224" cy="20.224" r="20.224" transform="translate(0 15.491) rotate(-22.514)" fill="#fb9927"/>
    </g>
    <g id="Group_291" data-name="Group 291" transform="translate(54.927 40.145)">
      <path id="Path_2104" data-name="Path 2104" d="M254.723,190.463a20.221,20.221,0,0,1-26.857,19.1c.5.04,1.005.061,1.516.061a19.164,19.164,0,1,0,0-38.329q-.766,0-1.516.061a20.221,20.221,0,0,1,26.857,19.1Z" transform="translate(-227.866 -170.239)" fill="#f98824"/>
    </g>
    <path id="Path_2105" data-name="Path 2105" d="M239.523,213.895a7.379,7.379,0,0,0-2.419-5.465,1,1,0,0,1-.162-1.285,6.413,6.413,0,0,0-3.138-9.453.985.985,0,0,1-.628-.923v-1.545a.994.994,0,0,0-.994-.994H230.55a.994.994,0,0,0-.994.994v1.057a.994.994,0,0,1-1.989,0v-1.057a.994.994,0,0,0-.994-.994H224.94a.994.994,0,0,0-.994.994v1.057a.994.994,0,0,1-.994.994H221.16a.994.994,0,0,0-.994.994V199.9a.994.994,0,0,0,.994.994h1.054a.994.994,0,0,1,.994.994v14.79a.994.994,0,0,1-.994.994H221.16a.994.994,0,0,0-.994.994V220.3a.994.994,0,0,0,.994.994h1.791a.994.994,0,0,1,.994.994v1.057a.994.994,0,0,0,.994.994h1.632a.994.994,0,0,0,.994-.994v-1.057a.994.994,0,0,1,1.989,0v1.057a.994.994,0,0,0,.994.994h1.632a.994.994,0,0,0,.994-.994v-1.313a.987.987,0,0,1,.742-.96A7.412,7.412,0,0,0,239.523,213.895Zm-7.992-13a2.8,2.8,0,0,1,2.787,3.069,2.854,2.854,0,0,1-2.868,2.53h-3.625a.994.994,0,0,1-.994-.994v-3.61a.994.994,0,0,1,.994-.994h3.707Zm.482,16.779h-4.189a.994.994,0,0,1-.994-.994v-5.571a.994.994,0,0,1,.994-.994h4.3a3.784,3.784,0,0,1,3.775,3.97A3.852,3.852,0,0,1,232.013,217.674Z" transform="translate(-167.055 -148.427)" fill="#ffd496"/>
    <g id="Group_292" data-name="Group 292" transform="translate(1.592 11.456)">
      <path id="Path_2106" data-name="Path 2106" d="M20.561,59.509l18.869-10.93V69.636a1.207,1.207,0,0,1-.6,1.044L21.166,80.911a1.207,1.207,0,0,1-1.21,0L2.294,70.68a1.207,1.207,0,0,1-.6-1.044V48.579Z" transform="translate(-1.692 -48.579)" fill="#2944ae"/>
    </g>
    <g id="Group_293" data-name="Group 293" transform="translate(1.592 11.456)">
      <path id="Path_2107" data-name="Path 2107" d="M21.768,58.809V80.563l-.6.348a1.208,1.208,0,0,1-1.212,0L2.293,70.681a1.212,1.212,0,0,1-.6-1.045V48.579l18.869,10.93Z" transform="translate(-1.692 -48.579)" fill="#2944ae"/>
    </g>
    <g id="Group_294" data-name="Group 294" transform="translate(14.535 18.954)">
      <path id="Path_2108" data-name="Path 2108" d="M62.5,83.806v21.566a1.207,1.207,0,0,1-.606-.164l-5.32-3.083V80.374Z" transform="translate(-56.579 -80.374)" fill="#213993"/>
    </g>
    <g id="Group_295" data-name="Group 295" transform="translate(20.461 11.456)">
      <path id="Path_2109" data-name="Path 2109" d="M100.579,48.579V69.635a1.212,1.212,0,0,1-.6,1.045L82.316,80.91a1.208,1.208,0,0,1-.606.164V59.509Z" transform="translate(-81.71 -48.579)" fill="#627be6"/>
    </g>
    <g id="Group_296" data-name="Group 296" transform="translate(32.506 11.456)">
      <path id="Path_2110" data-name="Path 2110" d="M139.613,48.579V69.635a1.212,1.212,0,0,1-.6,1.045l-6.223,3.6V52.533Z" transform="translate(-132.789 -48.579)" fill="#3351c5"/>
    </g>
    <g id="Group_297" data-name="Group 297" transform="translate(1.561 0.001)">
      <path id="Path_2111" data-name="Path 2111" d="M2.163,10.412,19.856.163a1.207,1.207,0,0,1,1.21,0L38.76,10.412a1.207,1.207,0,0,1,0,2.089L21.066,22.749a1.207,1.207,0,0,1-1.21,0L2.163,12.5a1.207,1.207,0,0,1,0-2.089Z" transform="translate(-1.561 -0.001)" fill="#7c91ea"/>
    </g>
    <path id="Path_2112" data-name="Path 2112" d="M76.221,12.5l-6.264,3.628L50.581,4.067l6.735-3.9a1.208,1.208,0,0,1,1.212,0L76.221,10.413A1.209,1.209,0,0,1,76.221,12.5Z" transform="translate(-37.46 -0.002)" fill="#5169cd"/>
    <g id="Group_298" data-name="Group 298" transform="translate(1.592 88.241)">
      <path id="Path_2113" data-name="Path 2113" d="M20.56,385.127,39.43,374.2v21.057a1.207,1.207,0,0,1-.6,1.044L21.165,406.529a1.207,1.207,0,0,1-1.21,0L2.293,396.3a1.207,1.207,0,0,1-.6-1.044V374.2Z" transform="translate(-1.691 -374.197)" fill="#2944ae"/>
    </g>
    <g id="Group_299" data-name="Group 299" transform="translate(1.592 88.241)">
      <path id="Path_2114" data-name="Path 2114" d="M21.768,384.428v21.754l-.6.348a1.209,1.209,0,0,1-1.212,0L2.293,396.3a1.212,1.212,0,0,1-.6-1.045V374.2l18.869,10.93Z" transform="translate(-1.692 -374.198)" fill="#2944ae"/>
    </g>
    <g id="Group_300" data-name="Group 300" transform="translate(14.535 95.739)">
      <path id="Path_2115" data-name="Path 2115" d="M62.5,409.424V430.99a1.207,1.207,0,0,1-.606-.164l-5.32-3.083V405.992Z" transform="translate(-56.579 -405.992)" fill="#213993"/>
    </g>
    <g id="Group_301" data-name="Group 301" transform="translate(20.461 88.241)">
      <path id="Path_2116" data-name="Path 2116" d="M100.578,374.2v21.056a1.212,1.212,0,0,1-.6,1.045l-17.662,10.23a1.209,1.209,0,0,1-.606.164V385.128Z" transform="translate(-81.709 -374.198)" fill="#627be6"/>
    </g>
    <g id="Group_302" data-name="Group 302" transform="translate(32.506 88.241)">
      <path id="Path_2117" data-name="Path 2117" d="M139.613,374.2v21.056a1.212,1.212,0,0,1-.6,1.045l-6.223,3.6V378.152Z" transform="translate(-132.789 -374.198)" fill="#3351c5"/>
    </g>
    <g id="Group_303" data-name="Group 303" transform="translate(1.561 76.786)">
      <path id="Path_2118" data-name="Path 2118" d="M2.163,336.03l17.693-10.248a1.207,1.207,0,0,1,1.21,0L38.76,336.03a1.207,1.207,0,0,1,0,2.089L21.066,348.367a1.207,1.207,0,0,1-1.21,0L2.163,338.119a1.207,1.207,0,0,1,0-2.089Z" transform="translate(-1.561 -325.619)" fill="#7c91ea"/>
    </g>
    <path id="Path_2119" data-name="Path 2119" d="M76.221,338.121l-6.264,3.628L50.581,329.685l6.735-3.9a1.208,1.208,0,0,1,1.212,0l17.694,10.247A1.209,1.209,0,0,1,76.221,338.121Z" transform="translate(-37.46 -248.835)" fill="#5169cd"/>
    <g id="Group_304" data-name="Group 304" transform="translate(83.791 11.456)">
      <path id="Path_2120" data-name="Path 2120" d="M369.139,59.509l18.869-10.93V69.636a1.207,1.207,0,0,1-.6,1.044L369.744,80.911a1.207,1.207,0,0,1-1.21,0L350.872,70.68a1.207,1.207,0,0,1-.6-1.044V48.579Z" transform="translate(-350.27 -48.579)" fill="#2944ae"/>
    </g>
    <g id="Group_305" data-name="Group 305" transform="translate(83.791 11.456)">
      <path id="Path_2121" data-name="Path 2121" d="M370.347,58.809V80.563l-.6.348a1.208,1.208,0,0,1-1.212,0L350.872,70.68a1.212,1.212,0,0,1-.6-1.045V48.579l18.869,10.93Z" transform="translate(-350.271 -48.579)" fill="#2944ae"/>
    </g>
    <g id="Group_306" data-name="Group 306" transform="translate(96.734 18.954)">
      <path id="Path_2122" data-name="Path 2122" d="M411.084,83.806v21.566a1.207,1.207,0,0,1-.606-.164l-5.32-3.083V80.374Z" transform="translate(-405.158 -80.374)" fill="#213993"/>
    </g>
    <g id="Group_307" data-name="Group 307" transform="translate(102.661 11.456)">
      <path id="Path_2123" data-name="Path 2123" d="M449.158,48.579V69.635a1.212,1.212,0,0,1-.6,1.045L430.895,80.91a1.208,1.208,0,0,1-.606.164V59.509Z" transform="translate(-430.289 -48.579)" fill="#627be6"/>
    </g>
    <g id="Group_308" data-name="Group 308" transform="translate(114.706 11.456)">
      <path id="Path_2124" data-name="Path 2124" d="M488.192,48.579V69.635a1.212,1.212,0,0,1-.6,1.045l-6.223,3.6V52.533Z" transform="translate(-481.368 -48.579)" fill="#3351c5"/>
    </g>
    <g id="Group_309" data-name="Group 309" transform="translate(83.76 0.001)">
      <path id="Path_2125" data-name="Path 2125" d="M350.742,10.412,368.435.163a1.207,1.207,0,0,1,1.21,0l17.693,10.249a1.207,1.207,0,0,1,0,2.089L369.645,22.749a1.207,1.207,0,0,1-1.21,0L350.742,12.5A1.207,1.207,0,0,1,350.742,10.412Z" transform="translate(-350.14 -0.001)" fill="#7c91ea"/>
    </g>
    <path id="Path_2126" data-name="Path 2126" d="M424.8,12.5l-6.264,3.628L399.16,4.067l6.735-3.9a1.208,1.208,0,0,1,1.212,0L424.8,10.413A1.209,1.209,0,0,1,424.8,12.5Z" transform="translate(-303.84 -0.002)" fill="#5169cd"/>
    <g id="Group_310" data-name="Group 310" transform="translate(83.791 88.241)">
      <path id="Path_2127" data-name="Path 2127" d="M369.139,385.127l18.869-10.93v21.057a1.207,1.207,0,0,1-.6,1.044l-17.662,10.231a1.207,1.207,0,0,1-1.21,0L350.872,396.3a1.207,1.207,0,0,1-.6-1.044V374.2Z" transform="translate(-350.27 -374.197)" fill="#2944ae"/>
    </g>
    <g id="Group_311" data-name="Group 311" transform="translate(83.791 88.241)">
      <path id="Path_2128" data-name="Path 2128" d="M370.347,384.428v21.754l-.6.348a1.208,1.208,0,0,1-1.212,0L350.872,396.3a1.212,1.212,0,0,1-.6-1.045V374.2l18.869,10.93Z" transform="translate(-350.271 -374.198)" fill="#2944ae"/>
    </g>
    <g id="Group_312" data-name="Group 312" transform="translate(96.734 95.739)">
      <path id="Path_2129" data-name="Path 2129" d="M411.084,409.424V430.99a1.207,1.207,0,0,1-.606-.164l-5.32-3.083V405.992Z" transform="translate(-405.158 -405.992)" fill="#213993"/>
    </g>
    <g id="Group_313" data-name="Group 313" transform="translate(102.661 88.241)">
      <path id="Path_2130" data-name="Path 2130" d="M449.158,374.2v21.056a1.212,1.212,0,0,1-.6,1.045l-17.662,10.23a1.208,1.208,0,0,1-.606.164V385.128Z" transform="translate(-430.289 -374.198)" fill="#627be6"/>
    </g>
    <g id="Group_314" data-name="Group 314" transform="translate(114.706 88.241)">
      <path id="Path_2131" data-name="Path 2131" d="M488.192,374.2v21.056a1.212,1.212,0,0,1-.6,1.045l-6.223,3.6V378.152Z" transform="translate(-481.368 -374.198)" fill="#3351c5"/>
    </g>
    <g id="Group_315" data-name="Group 315" transform="translate(83.76 76.786)">
      <path id="Path_2132" data-name="Path 2132" d="M350.742,336.03l17.693-10.248a1.207,1.207,0,0,1,1.21,0l17.693,10.249a1.207,1.207,0,0,1,0,2.089l-17.693,10.248a1.207,1.207,0,0,1-1.21,0l-17.693-10.249A1.207,1.207,0,0,1,350.742,336.03Z" transform="translate(-350.14 -325.619)" fill="#7c91ea"/>
    </g>
    <path id="Path_2133" data-name="Path 2133" d="M424.8,338.121l-6.264,3.628L399.16,329.685l6.735-3.9a1.208,1.208,0,0,1,1.212,0L424.8,336.031A1.209,1.209,0,0,1,424.8,338.121Z" transform="translate(-303.84 -248.835)" fill="#5169cd"/>
  </g>
</svg>
